<?xml version="1.0" encoding="UTF-8" standalone="no"?>
<!-- Created with Inkscape (http://www.inkscape.org/) -->
<svg
   xmlns:dc="http://purl.org/dc/elements/1.1/"
   xmlns:cc="http://web.resource.org/cc/"
   xmlns:rdf="http://www.w3.org/1999/02/22-rdf-syntax-ns#"
   xmlns:svg="http://www.w3.org/2000/svg"
   xmlns="http://www.w3.org/2000/svg"
   xmlns:xlink="http://www.w3.org/1999/xlink"
   xmlns:sodipodi="http://sodipodi.sourceforge.net/DTD/sodipodi-0.dtd"
   xmlns:inkscape="http://www.inkscape.org/namespaces/inkscape"
   sodipodi:docname="overdue-invoice.svg"
   sodipodi:docbase="C:\Source\PHP\SureInvoice\setup\assets"
   inkscape:version="0.45"
   sodipodi:version="0.32"
   id="svg1288"
   height="48px"
   width="48px"
   inkscape:output_extension="org.inkscape.output.svg.inkscape"
   inkscape:export-filename="C:\Source\PHP\SureInvoice\setup\assets\overdue-invoice.png"
   inkscape:export-xdpi="34.889999"
   inkscape:export-ydpi="34.889999"
   sodipodi:modified="TRUE">
  <defs
     id="defs3">
    <linearGradient
       id="linearGradient9660"
       inkscape:collect="always">
      <stop
         id="stop9662"
         offset="0"
         style="stop-color:#deadad;stop-opacity:1.0000000" />
      <stop
         id="stop9664"
         offset="1"
         style="stop-color:#bf2222;stop-opacity:1.0000000" />
    </linearGradient>
    <radialGradient
       inkscape:collect="always"
       xlink:href="#linearGradient9660"
       id="radialGradient9645"
       gradientUnits="userSpaceOnUse"
       cx="43.989220"
       cy="41.919136"
       fx="43.989220"
       fy="41.919136"
       r="54.459568" />
    <linearGradient
       inkscape:collect="always"
       id="linearGradient9603">
      <stop
         style="stop-color:#ffffff;stop-opacity:1;"
         offset="0"
         id="stop9605" />
      <stop
         style="stop-color:#ffffff;stop-opacity:0;"
         offset="1"
         id="stop9607" />
    </linearGradient>
    <linearGradient
       inkscape:collect="always"
       xlink:href="#linearGradient9603"
       id="linearGradient1332"
       gradientUnits="userSpaceOnUse"
       x1="99.144974"
       y1="100.61713"
       x2="62.619946"
       y2="69.361893" />
    <linearGradient
       id="linearGradient9666">
      <stop
         id="stop9668"
         offset="0.0000000"
         style="stop-color:#581919;stop-opacity:1.0000000" />
      <stop
         id="stop9670"
         offset="1.0000000"
         style="stop-color:#581919;stop-opacity:0.0000000" />
    </linearGradient>
    <linearGradient
       inkscape:collect="always"
       xlink:href="#linearGradient9666"
       id="linearGradient1330"
       gradientUnits="userSpaceOnUse"
       x1="23.550915"
       y1="26.840231"
       x2="62.619946"
       y2="59.912632" />
    <linearGradient
       inkscape:collect="always"
       id="linearGradient9631">
      <stop
         style="stop-color:#ffffff;stop-opacity:0.34170854"
         offset="0"
         id="stop9633" />
      <stop
         style="stop-color:#ffffff;stop-opacity:0;"
         offset="1"
         id="stop9635" />
    </linearGradient>
    <linearGradient
       inkscape:collect="always"
       xlink:href="#linearGradient9631"
       id="linearGradient9651"
       gradientUnits="userSpaceOnUse"
       x1="62.454109"
       y1="4.9508743"
       x2="62.454109"
       y2="63.112526" />
    <linearGradient
       inkscape:collect="always"
       xlink:href="#linearGradient1328"
       id="linearGradient1334"
       x1="58.997303"
       y1="37.261456"
       x2="68.657684"
       y2="38.641510"
       gradientUnits="userSpaceOnUse"
       gradientTransform="matrix(0.165358,0,0,0.1615526,25.78258,1.6434672)" />
    <linearGradient
       inkscape:collect="always"
       id="linearGradient1328">
      <stop
         style="stop-color:#7c3232;stop-opacity:1;"
         offset="0"
         id="stop1330" />
      <stop
         style="stop-color:#7c3232;stop-opacity:0;"
         offset="1"
         id="stop1332" />
    </linearGradient>
    <linearGradient
       inkscape:collect="always"
       xlink:href="#linearGradient1328"
       id="linearGradient1338"
       gradientUnits="userSpaceOnUse"
       x1="53.000343"
       y1="89.358490"
       x2="67.277634"
       y2="97.638817"
       gradientTransform="matrix(0.165358,0,0,0.1615526,25.78258,1.6434672)" />
    <linearGradient
       id="linearGradient2563">
      <stop
         id="stop2565"
         offset="0"
         style="stop-color:#e2e2e2;stop-opacity:1;" />
      <stop
         id="stop2567"
         offset="1.0000000"
         style="stop-color:#9f9f9f;stop-opacity:1.0000000;" />
    </linearGradient>
    <linearGradient
       id="linearGradient2551"
       inkscape:collect="always">
      <stop
         id="stop2553"
         offset="0"
         style="stop-color:#000000;stop-opacity:1;" />
      <stop
         id="stop2555"
         offset="1"
         style="stop-color:#000000;stop-opacity:0;" />
    </linearGradient>
    <linearGradient
       id="linearGradient2526">
      <stop
         id="stop2528"
         offset="0.0000000"
         style="stop-color:#e7ebeb;stop-opacity:1.0000000;" />
      <stop
         style="stop-color:#e6ebeb;stop-opacity:1.0000000;"
         offset="0.50000000"
         id="stop2534" />
      <stop
         id="stop2530"
         offset="1.0000000"
         style="stop-color:#ffffff;stop-opacity:1.0000000;" />
    </linearGradient>
    <linearGradient
       gradientTransform="translate(0.000000,0.785718)"
       gradientUnits="userSpaceOnUse"
       y2="28.428572"
       x2="42.214283"
       y1="14.428571"
       x1="13.357142"
       id="linearGradient2532"
       xlink:href="#linearGradient2526"
       inkscape:collect="always" />
    <radialGradient
       gradientUnits="userSpaceOnUse"
       gradientTransform="matrix(1.000000,0.000000,0.000000,0.751938,1.196962e-16,7.193799)"
       r="18.428572"
       fy="29.000000"
       fx="26.000000"
       cy="29.000000"
       cx="26.000000"
       id="radialGradient2557"
       xlink:href="#linearGradient2551"
       inkscape:collect="always" />
    <linearGradient
       gradientTransform="translate(0.000000,0.785718)"
       gradientUnits="userSpaceOnUse"
       y2="30.785713"
       x2="42.214284"
       y1="30.785713"
       x1="6.7857148"
       id="linearGradient2569"
       xlink:href="#linearGradient2563"
       inkscape:collect="always" />
    <linearGradient
       y2="28.428572"
       x2="42.214283"
       y1="14.428571"
       x1="13.357142"
       gradientTransform="translate(2.045771e-15,0.785718)"
       gradientUnits="userSpaceOnUse"
       id="linearGradient2582"
       xlink:href="#linearGradient2526"
       inkscape:collect="always" />
  </defs>
  <sodipodi:namedview
     inkscape:window-y="166"
     inkscape:window-x="470"
     inkscape:window-height="701"
     inkscape:window-width="744"
     inkscape:document-units="px"
     inkscape:grid-bbox="true"
     showgrid="false"
     inkscape:current-layer="layer1"
     inkscape:cy="29.099237"
     inkscape:cx="25.21347"
     inkscape:zoom="9.8994949"
     inkscape:pageshadow="2"
     inkscape:pageopacity="0.0"
     borderopacity="1.0"
     bordercolor="#666666"
     pagecolor="#ffffff"
     id="base" />
  <metadata
     id="metadata4">
    <rdf:RDF>
      <cc:Work
         rdf:about="">
        <dc:format>image/svg+xml</dc:format>
        <dc:type
           rdf:resource="http://purl.org/dc/dcmitype/StillImage" />
        <dc:title>Calendar</dc:title>
        <dc:creator>
          <cc:Agent>
            <dc:title>Jakub Steiner</dc:title>
          </cc:Agent>
        </dc:creator>
        <dc:source>http://jimmac.musichall.cz</dc:source>
        <dc:subject>
          <rdf:Bag>
            <rdf:li>calendar</rdf:li>
            <rdf:li>date</rdf:li>
            <rdf:li>time</rdf:li>
            <rdf:li>cal</rdf:li>
          </rdf:Bag>
        </dc:subject>
        <cc:license
           rdf:resource="http://creativecommons.org/licenses/by/2.0/" />
      </cc:Work>
      <cc:License
         rdf:about="http://creativecommons.org/licenses/by/2.0/">
        <cc:permits
           rdf:resource="http://web.resource.org/cc/Reproduction" />
        <cc:permits
           rdf:resource="http://web.resource.org/cc/Distribution" />
        <cc:requires
           rdf:resource="http://web.resource.org/cc/Notice" />
        <cc:requires
           rdf:resource="http://web.resource.org/cc/Attribution" />
        <cc:permits
           rdf:resource="http://web.resource.org/cc/DerivativeWorks" />
        <cc:requires
           rdf:resource="http://web.resource.org/cc/ShareAlike" />
      </cc:License>
    </rdf:RDF>
  </metadata>
  <g
     inkscape:groupmode="layer"
     inkscape:label="Layer 1"
     id="layer1">
    <path
       transform="matrix(1.092008,0.000000,0.000000,0.536083,-3.549359,20.73933)"
       d="M 44.428572 29.000000 A 18.428572 13.857142 0 1 1  7.5714283,29.000000 A 18.428572 13.857142 0 1 1  44.428572 29.000000 z"
       sodipodi:ry="13.857142"
       sodipodi:rx="18.428572"
       sodipodi:cy="29.000000"
       sodipodi:cx="26.000000"
       id="path2549"
       style="opacity:1.0000000;color:#000000;fill:url(#radialGradient2557);fill-opacity:1.0000000;fill-rule:evenodd;stroke:none;stroke-width:0.99999964;stroke-linecap:butt;stroke-linejoin:miter;marker:none;marker-start:none;marker-mid:none;marker-end:none;stroke-miterlimit:4.0000000;stroke-dasharray:none;stroke-dashoffset:0.0000000;stroke-opacity:1.0000000;visibility:visible;display:inline;overflow:visible"
       sodipodi:type="arc" />
    <path
       sodipodi:nodetypes="ccccccc"
       id="path1316"
       d="M 4.8571430,38.428571 C 4.6428572,39.428571 5.4642859,40.464285 6.8214287,40.428571 L 43.000000,40.428571 C 44.285714,40.392857 44.714286,39.214285 44.428572,38.249999 L 36.571429,9.4285713 L 10.571429,9.4285713 L 4.8571430,38.428571 z "
       style="fill:#a7a7a7;fill-opacity:1.0000000;fill-rule:evenodd;stroke:#656565;stroke-width:1.0000000px;stroke-linecap:butt;stroke-linejoin:miter;stroke-opacity:1.0000000" />
    <path
       sodipodi:nodetypes="ccccccccc"
       id="path2575"
       d="M 9.1625040,30.806458 L 39.395095,30.806458 C 40.252297,30.806458 40.942392,31.478744 40.942392,32.313825 L 42.269580,37.114760 C 42.269580,37.949841 41.579486,38.622127 40.722283,38.622127 L 8.2777114,38.622127 C 7.4205088,38.622127 6.7304142,37.949841 6.7304142,37.114760 L 7.6152068,32.313825 C 7.6152068,31.478744 8.3053014,30.806458 9.1625040,30.806458 z "
       style="opacity:0.10857142;color:#000000;fill:#000000;fill-opacity:1.0000000;fill-rule:evenodd;stroke:#000000;stroke-width:0.99999958;stroke-linecap:butt;stroke-linejoin:miter;marker:none;marker-start:none;marker-mid:none;marker-end:none;stroke-miterlimit:4.0000000;stroke-dasharray:none;stroke-dashoffset:0.0000000;stroke-opacity:1.0000000;visibility:visible;display:inline;overflow:visible;font-family:Bitstream Vera Sans" />
    <path
       style="fill:none;fill-opacity:1.0000000;fill-rule:evenodd;stroke:#ffffff;stroke-width:0.99999970px;stroke-linecap:butt;stroke-linejoin:miter;stroke-opacity:0.34463277"
       d="M 6.0478436,37.805569 C 5.8479823,38.738255 5.6491963,39.385227 6.5227626,39.385227 L 42.837439,39.385227 C 43.753496,39.385227 43.579187,38.645537 43.312705,37.746161 L 35.770172,10.471961 L 11.520336,10.471961 L 6.0478436,37.805569 z "
       id="path2520"
       sodipodi:nodetypes="ccccccc" />
    <path
       style="opacity:1.0000000;color:#000000;fill:#c5c5c5;fill-opacity:1.0000000;fill-rule:evenodd;stroke:#696969;stroke-width:0.99999964;stroke-linecap:butt;stroke-linejoin:miter;marker:none;marker-start:none;marker-mid:none;marker-end:none;stroke-miterlimit:4.0000000;stroke-dasharray:none;stroke-dashoffset:0.0000000;stroke-opacity:1.0000000;visibility:visible;display:inline;overflow:visible;font-family:Bitstream Vera Sans"
       d="M 9.6418018,29.928574 L 38.929626,29.928574 C 39.760041,29.928574 40.428570,30.579851 40.428570,31.388835 L 41.714284,36.039742 C 41.714284,36.848726 41.045755,37.500003 40.215340,37.500003 L 8.7846589,37.500003 C 7.9542438,37.500003 7.2857146,36.848726 7.2857146,36.039742 L 8.1428575,31.388835 C 8.1428575,30.579851 8.8113867,29.928574 9.6418018,29.928574 z "
       id="path2518"
       sodipodi:nodetypes="ccccccccc" />
    <path
       sodipodi:nodetypes="ccccccccc"
       id="rect2225"
       d="M 9.6418018,27.785717 L 38.929626,27.785717 C 39.760041,27.785717 40.428570,28.436994 40.428570,29.245978 L 41.714284,33.896885 C 41.714284,34.705869 41.045755,35.357146 40.215340,35.357146 L 8.7846589,35.357146 C 7.9542438,35.357146 7.2857146,34.705869 7.2857146,33.896885 L 8.1428575,29.245978 C 8.1428575,28.436994 8.8113867,27.785717 9.6418018,27.785717 z "
       style="color:#000000;fill:url(#linearGradient2569);fill-opacity:1.0000000;fill-rule:evenodd;stroke:#696969;stroke-width:0.99999964;stroke-linecap:butt;stroke-linejoin:miter;marker:none;marker-start:none;marker-mid:none;marker-end:none;stroke-miterlimit:4.0000000;stroke-dashoffset:0.0000000;stroke-opacity:1.0000000;visibility:visible;display:inline;overflow:visible" />
    <g
       transform="matrix(0.942549,0.000000,0.000000,0.942549,-0.222619,1.855860)"
       id="g2578">
      <path
         style="fill:url(#linearGradient2582);fill-opacity:1.0000000;fill-rule:evenodd;stroke:#696969;stroke-width:1.0609524px;stroke-linecap:butt;stroke-linejoin:miter;stroke-opacity:1.0000000"
         d="M 10.891973,11.500004 L 6.5714281,33.214290 C 6.5714281,33.214290 32.857143,33.214291 32.857143,33.214291 C 45.441975,33.214291 48.085306,29.214290 48.085306,29.214290 C 48.085306,29.214290 44.728164,28.035719 43.299593,23.071433 C 43.299593,23.071433 40.238640,11.500004 40.238640,11.500004 L 10.891973,11.500004 z "
         id="path2524"
         sodipodi:nodetypes="cczczcc" />
      <path
         sodipodi:nodetypes="cccczcc"
         id="path2571"
         d="M 11.803734,12.474609 L 7.8122567,32.239668 C 7.8122567,32.239668 24.956518,32.239669 32.238382,32.239669 C 43.465021,32.239669 46.348811,29.388804 46.348811,29.388804 C 46.348811,29.388804 43.355751,27.525962 42.055419,23.007305 C 42.055419,23.007305 39.316856,12.546038 39.316856,12.546038 L 11.803734,12.474609 z "
         style="fill:none;fill-opacity:1.0000000;fill-rule:evenodd;stroke:#ffffff;stroke-width:1.0609519px;stroke-linecap:butt;stroke-linejoin:miter;stroke-opacity:1.0000000" />
    </g>
    <path
       sodipodi:nodetypes="ccccccccc"
       id="rect2522"
       d="M 11.315699,7.4285707 L 36.494515,7.4285707 C 37.367632,7.4285707 38.070539,8.0973414 38.070539,8.9280566 L 38.427682,11.071942 C 38.427682,11.902657 37.724775,12.571428 36.851658,12.571428 L 10.958556,12.571428 C 10.085439,12.571428 9.3825323,11.902657 9.3825323,11.071942 L 9.7396752,8.9280566 C 9.7396752,8.0973414 10.442582,7.4285707 11.315699,7.4285707 z "
       style="color:#000000;fill:#9b9b9b;fill-opacity:1.0000000;fill-rule:evenodd;stroke:#696969;stroke-width:0.99999952;stroke-linecap:butt;stroke-linejoin:miter;stroke-miterlimit:4.0000000;stroke-dashoffset:0.0000000;stroke-opacity:1.0000000;marker:none;marker-start:none;marker-mid:none;marker-end:none;visibility:visible;display:inline;overflow:visible" />
    <path
       id="text2541"
       d="M 20.969159,22.393020 C 21.957574,22.486777 22.691543,22.765423 23.171063,23.228961 C 23.651181,23.687301 23.849054,24.273239 23.764680,24.986779 C 23.640870,26.033659 23.075908,26.877412 22.069796,27.518037 C 21.063667,28.158665 19.762256,28.478977 18.165559,28.478978 C 16.939741,28.478977 15.906445,28.286269 15.065668,27.900851 L 15.305880,25.869594 C 16.189321,26.478973 17.193659,26.783661 18.318897,26.783660 C 19.217824,26.783661 19.926554,26.637828 20.445092,26.346159 C 20.964233,26.049284 21.255527,25.632617 21.318975,25.096154 C 21.385488,24.533656 21.176411,24.122197 20.691744,23.861775 C 20.207063,23.601362 19.398966,23.471154 18.267450,23.471149 L 16.994488,23.471149 L 17.201440,21.721144 L 18.559266,21.721144 C 19.451905,21.721150 20.149975,21.585733 20.653477,21.314892 C 21.157582,21.038857 21.439509,20.648231 21.499262,20.143013 C 21.555304,19.669062 21.408536,19.288853 21.058960,19.002385 C 20.709369,18.715935 20.154261,18.572705 19.393634,18.572696 C 18.431836,18.572705 17.490216,18.853956 16.568772,19.416448 L 16.798822,17.471130 C 17.831208,17.033639 18.988597,16.814889 20.270993,16.814878 C 21.509374,16.814889 22.459536,17.072702 23.121484,17.588317 C 23.789700,18.103954 24.076386,18.762810 23.981543,19.564886 C 23.893455,20.309689 23.598230,20.919065 23.095869,21.393017 C 22.594104,21.861775 21.885201,22.195109 20.969159,22.393020"
       style="font-size:17.577877;font-style:normal;font-variant:normal;font-weight:bold;font-stretch:normal;line-height:100.00000%;writing-mode:lr-tb;text-anchor:start;fill:#000000;fill-opacity:1.0000000;stroke:none;stroke-width:1.0000000px;stroke-linecap:butt;stroke-linejoin:miter;stroke-opacity:1.0000000;font-family:Segoe" />
    <path
       id="text2545"
       d="M 33.007379,28.455540 L 30.499173,28.455540 L 29.387875,19.096134 L 26.295373,19.893012 L 26.086657,18.135194 L 31.627997,16.838314 L 33.007379,28.455540"
       style="font-size:17.577877;font-style:normal;font-variant:normal;font-weight:bold;font-stretch:normal;line-height:100.00000%;writing-mode:lr-tb;text-anchor:start;fill:#000000;fill-opacity:1.0000000;stroke:none;stroke-width:1.0000000px;stroke-linecap:butt;stroke-linejoin:miter;stroke-opacity:1.0000000;font-family:Segoe" />
    <path
       transform="matrix(0.684211,0.000000,0.000000,0.684211,3.560154,2.278197)"
       d="M 12.857143 9.9285717 A 1.3571428 1.3571428 0 1 1  10.142857,9.9285717 A 1.3571428 1.3571428 0 1 1  12.857143 9.9285717 z"
       sodipodi:ry="1.3571428"
       sodipodi:rx="1.3571428"
       sodipodi:cy="9.9285717"
       sodipodi:cx="11.500000"
       id="path2559"
       style="opacity:0.52571428;color:#000000;fill:#fefefe;fill-opacity:1.0000000;fill-rule:evenodd;stroke:none;stroke-width:0.99999964;stroke-linecap:butt;stroke-linejoin:miter;marker:none;marker-start:none;marker-mid:none;marker-end:none;stroke-miterlimit:4.0000000;stroke-dasharray:none;stroke-dashoffset:0.0000000;stroke-opacity:1.0000000;visibility:visible;display:inline;overflow:visible"
       sodipodi:type="arc" />
    <path
       sodipodi:nodetypes="cc"
       id="path2561"
       d="M 13.042053,8.6010151 L 36.371309,8.6010151"
       style="opacity:0.30285713;fill:none;fill-opacity:0.75000000;fill-rule:evenodd;stroke:#ffffff;stroke-width:1.0000001px;stroke-linecap:round;stroke-linejoin:miter;stroke-opacity:1.0000000" />
    <path
       sodipodi:type="arc"
       style="opacity:1;color:#000000;fill:url(#radialGradient9645);fill-opacity:1;fill-rule:nonzero;stroke:#7c3232;stroke-width:3;stroke-linecap:round;stroke-linejoin:round;marker:none;marker-start:none;marker-mid:none;marker-end:none;stroke-miterlimit:4;stroke-dasharray:none;stroke-dashoffset:0;stroke-opacity:1;visibility:visible;display:inline;overflow:visible"
       id="path8131"
       sodipodi:cx="62.619946"
       sodipodi:cy="62.274933"
       sodipodi:rx="52.959568"
       sodipodi:ry="52.959568"
       d="M 115.57951 62.274933 A 52.959568 52.959568 0 1 1  9.6603775,62.274933 A 52.959568 52.959568 0 1 1  115.57951 62.274933 z"
       transform="matrix(0.165358,0,0,0.1615526,26.010783,1.9778948)" />
    <path
       sodipodi:type="arc"
       style="opacity:1;color:#000000;fill:none;fill-opacity:1;fill-rule:nonzero;stroke:url(#linearGradient1332);stroke-width:3;stroke-linecap:round;stroke-linejoin:round;marker:none;marker-start:none;marker-mid:none;marker-end:none;stroke-miterlimit:4;stroke-dasharray:none;stroke-dashoffset:0;stroke-opacity:1;visibility:visible;display:inline;overflow:visible"
       id="path9593"
       sodipodi:cx="62.619946"
       sodipodi:cy="62.274933"
       sodipodi:rx="52.959568"
       sodipodi:ry="52.959568"
       d="M 115.57951 62.274933 A 52.959568 52.959568 0 1 1  9.6603775,62.274933 A 52.959568 52.959568 0 1 1  115.57951 62.274933 z"
       transform="matrix(-0.1516285,-3.9693787e-2,4.062879e-2,-0.148139,43.330305,23.749528)" />
    <path
       sodipodi:type="arc"
       style="opacity:1;color:#000000;fill:none;fill-opacity:1;fill-rule:nonzero;stroke:url(#linearGradient1330);stroke-width:3.0000484;stroke-linecap:round;stroke-linejoin:round;marker:none;marker-start:none;marker-mid:none;marker-end:none;stroke-miterlimit:4;stroke-dasharray:none;stroke-dashoffset:0;stroke-opacity:1;visibility:visible;display:inline;overflow:visible"
       id="path9611"
       sodipodi:cx="62.619946"
       sodipodi:cy="62.274933"
       sodipodi:rx="52.959568"
       sodipodi:ry="52.959568"
       d="M 115.57951 62.274933 A 52.959568 52.959568 0 1 1  9.6603775,62.274933 A 52.959568 52.959568 0 1 1  115.57951 62.274933 z"
       transform="matrix(-0.1569773,0,0,-0.1533648,46.195396,21.589345)" />
    <path
       sodipodi:type="arc"
       style="opacity:1;color:#000000;fill:url(#linearGradient9651);fill-opacity:1;fill-rule:nonzero;stroke:none;stroke-width:2.84800005;stroke-linecap:round;stroke-linejoin:round;marker:none;marker-start:none;marker-mid:none;marker-end:none;stroke-miterlimit:4;stroke-dasharray:none;stroke-dashoffset:0;stroke-opacity:1;visibility:visible;display:inline;overflow:visible"
       id="path9621"
       sodipodi:cx="65.869568"
       sodipodi:cy="47.492748"
       sodipodi:rx="31.714977"
       sodipodi:ry="20.492756"
       d="M 97.584545 47.492748 A 31.714977 20.492756 0 1 1  34.154591,47.492748 A 31.714977 20.492756 0 1 1  97.584545 47.492748 z"
       transform="matrix(0.1958856,0,0,0.1913776,23.462595,-0.6997841)" />
    <path
       style="font-size:98.27997589px;font-style:normal;font-variant:normal;font-weight:bold;font-stretch:normal;text-align:start;line-height:125%;writing-mode:lr-tb;text-anchor:start;fill:#ffffff;fill-opacity:1;stroke:url(#linearGradient1334);stroke-width:0.40861052;stroke-linecap:round;stroke-linejoin:round;stroke-miterlimit:4;stroke-opacity:1;font-family:Georgia"
       d="M 37.824248,8.0274078 C 37.824243,8.2393229 37.784567,8.521001 37.705219,8.8724442 C 37.631152,9.2187369 37.535929,9.6270417 37.41955,10.09736 C 37.308453,10.541851 37.181489,11.097455 37.038658,11.764175 C 36.895821,12.425738 36.745051,13.244931 36.586349,14.221757 L 35.975336,14.221757 C 35.816629,13.234594 35.665859,12.412816 35.523027,11.756422 C 35.380191,11.10004 35.253227,10.549603 35.142135,10.105112 C 35.04162,9.6968154 34.949042,9.2988475 34.864402,8.9112079 C 34.779757,8.5184171 34.737437,8.2238175 34.737438,8.0274078 C 34.737437,7.6294499 34.888205,7.2909188 35.189746,7.011814 C 35.491283,6.7275619 35.853659,6.5854306 36.276875,6.5854193 C 36.694795,6.5854306 37.05717,6.7275619 37.364004,7.011814 C 37.670829,7.2909188 37.824243,7.6294499 37.824248,8.0274078 M 37.808377,16.594061 C 37.808372,16.986862 37.654958,17.325393 37.348133,17.609656 C 37.04659,17.888751 36.692149,18.028298 36.28481,18.028298 C 35.872175,18.028298 35.512444,17.888751 35.205617,17.609656 C 34.904076,17.325393 34.753306,16.986862 34.753308,16.594061 C 34.753306,16.201264 34.904076,15.862732 35.205617,15.578467 C 35.512444,15.289038 35.872175,15.144323 36.28481,15.14432 C 36.692149,15.144323 37.04659,15.289038 37.348133,15.578467 C 37.654958,15.862732 37.808372,16.201264 37.808377,16.594061"
       id="text9653" />
    <path
       style="font-size:98.27997589px;font-style:normal;font-variant:normal;font-weight:bold;font-stretch:normal;text-align:start;line-height:125%;writing-mode:lr-tb;text-anchor:start;fill:#ffffff;fill-opacity:1;stroke:url(#linearGradient1338);stroke-width:0.40861052;stroke-linecap:round;stroke-linejoin:round;stroke-miterlimit:4;stroke-opacity:1;font-family:Georgia"
       d="M 37.808377,16.594061 C 37.808372,16.986862 37.654958,17.325393 37.348133,17.609656 C 37.04659,17.888751 36.692149,18.028298 36.28481,18.028298 C 35.872175,18.028298 35.512444,17.888751 35.205617,17.609656 C 34.904076,17.325393 34.753306,16.986862 34.753308,16.594061 C 34.753306,16.201264 34.904076,15.862732 35.205617,15.578467 C 35.512444,15.289038 35.872175,15.144323 36.28481,15.14432 C 36.692149,15.144323 37.04659,15.289038 37.348133,15.578467 C 37.654958,15.862732 37.808372,16.201264 37.808377,16.594061"
       id="path1336"
       sodipodi:nodetypes="csscssscc" />
  </g>
</svg>
